<?xml version="1.0" encoding="UTF-8" standalone="no"?><!DOCTYPE svg PUBLIC "-//W3C//DTD SVG 1.1//EN" "http://www.w3.org/Graphics/SVG/1.1/DTD/svg11.dtd"><svg width="100%" height="100%" viewBox="0 0 173 173" version="1.1" xmlns="http://www.w3.org/2000/svg" xmlns:xlink="http://www.w3.org/1999/xlink" xml:space="preserve" xmlns:serif="http://www.serif.com/" style="fill-rule:evenodd;clip-rule:evenodd;stroke-linejoin:round;stroke-miterlimit:2;"><g><path d="M170.895,25.7c0,-4.291 -1.71,-8.407 -4.755,-11.441c-3.044,-3.034 -7.174,-4.739 -11.479,-4.739l-129.454,-0c-4.306,-0 -8.435,1.705 -11.48,4.739c-3.044,3.034 -4.755,7.15 -4.755,11.441l0,129.021c0,4.291 1.711,8.407 4.755,11.441c3.045,3.035 7.174,4.74 11.48,4.74l129.454,-0c4.305,-0 8.435,-1.705 11.479,-4.74c3.045,-3.034 4.755,-7.15 4.755,-11.441l0,-129.021Z" style="fill:#00d8ff;"/><path d="M172.8,25.7c0,-4.795 -1.911,-9.393 -5.313,-12.783c-3.402,-3.391 -8.016,-5.296 -12.826,-5.296l-129.454,0c-4.811,0 -9.425,1.905 -12.826,5.296c-3.402,3.39 -5.313,7.988 -5.313,12.783l-0,129.021c-0,4.795 1.911,9.393 5.313,12.784c3.401,3.39 8.015,5.295 12.826,5.295l129.454,-0c4.81,0 9.424,-1.905 12.826,-5.295c3.402,-3.391 5.313,-7.989 5.313,-12.784l-0,-129.021Zm-1.905,0c0,-4.291 -1.71,-8.407 -4.755,-11.441c-3.044,-3.034 -7.174,-4.739 -11.479,-4.739l-129.454,-0c-4.306,-0 -8.435,1.705 -11.48,4.739c-3.044,3.034 -4.755,7.15 -4.755,11.441l0,129.021c0,4.291 1.711,8.407 4.755,11.441c3.045,3.035 7.174,4.74 11.48,4.74l129.454,-0c4.305,-0 8.435,-1.705 11.479,-4.74c3.045,-3.034 4.755,-7.15 4.755,-11.441l0,-129.021Z"/><path d="M163.828,18.079c-0,-4.291 -1.711,-8.407 -4.755,-11.441c-3.045,-3.035 -7.174,-4.74 -11.48,-4.74l-129.454,0c-4.305,0 -8.435,1.705 -11.479,4.74c-3.045,3.034 -4.755,7.15 -4.755,11.441l-0,129.021c-0,4.291 1.71,8.407 4.755,11.441c3.044,3.034 7.174,4.739 11.479,4.739l129.454,0c4.306,0 8.435,-1.705 11.48,-4.739c3.044,-3.034 4.755,-7.15 4.755,-11.441l-0,-129.021Z"/><path d="M165.732,18.079c0,-4.795 -1.911,-9.393 -5.313,-12.784c-3.401,-3.39 -8.015,-5.295 -12.826,-5.295l-129.454,0c-4.81,-0 -9.424,1.905 -12.826,5.295c-3.402,3.391 -5.313,7.989 -5.313,12.784l0,129.021c-0,4.795 1.911,9.393 5.313,12.783c3.402,3.391 8.016,5.296 12.826,5.296l129.454,-0c4.811,-0 9.425,-1.905 12.826,-5.296c3.402,-3.39 5.313,-7.988 5.313,-12.783l0,-129.021Zm-1.904,-0c-0,-4.291 -1.711,-8.407 -4.755,-11.441c-3.045,-3.035 -7.174,-4.74 -11.48,-4.74l-129.454,0c-4.305,0 -8.435,1.705 -11.479,4.74c-3.045,3.034 -4.755,7.15 -4.755,11.441l-0,129.021c-0,4.291 1.71,8.407 4.755,11.441c3.044,3.034 7.174,4.739 11.479,4.739l129.454,0c4.306,0 8.435,-1.705 11.48,-4.739c3.044,-3.034 4.755,-7.15 4.755,-11.441l-0,-129.021Z"/><path d="M116.976,139.17l-33.823,-49.142l-4.817,-6.995l-39.248,-57.025l16.883,0l31.74,46.117l4.816,6.996l41.332,60.049l-16.883,0Zm23.862,-4.8l-42.601,-61.891l-4.816,-6.999l-30.474,-44.273l-2.525,-3.669l-37.446,0l9.132,13.271l40.518,58.872l4.817,6.992l32.556,47.303l2.526,3.664l37.446,0l-9.133,-13.27Z" style="fill:#fff;fill-rule:nonzero;"/><path d="M78.336,83.033l4.817,6.995l-5.71,6.645l-43.81,50.967l-10.804,0l49.797,-57.959l5.71,-6.648Z" style="fill:#fff;fill-rule:nonzero;"/><path d="M145.463,17.538l-47.226,54.941l-5.71,6.642l-4.816,-6.996l5.71,-6.645l31.99,-37.235l9.248,-10.707l10.804,0Z" style="fill:#fff;fill-rule:nonzero;"/></g></svg>