<?xml version="1.0" encoding="UTF-8" standalone="no"?><!DOCTYPE svg PUBLIC "-//W3C//DTD SVG 1.1//EN" "http://www.w3.org/Graphics/SVG/1.1/DTD/svg11.dtd"><svg width="100%" height="100%" viewBox="0 0 173 173" version="1.1" xmlns="http://www.w3.org/2000/svg" xmlns:xlink="http://www.w3.org/1999/xlink" xml:space="preserve" xmlns:serif="http://www.serif.com/" style="fill-rule:evenodd;clip-rule:evenodd;stroke-linejoin:round;stroke-miterlimit:2;"><g><path d="M170.895,25.7c0,-4.291 -1.71,-8.407 -4.755,-11.441c-3.044,-3.034 -7.174,-4.739 -11.479,-4.739l-129.454,-0c-4.306,-0 -8.435,1.705 -11.48,4.739c-3.044,3.034 -4.755,7.15 -4.755,11.441l0,129.021c0,4.291 1.711,8.407 4.755,11.441c3.045,3.035 7.174,4.74 11.48,4.74l129.454,-0c4.305,-0 8.435,-1.705 11.479,-4.74c3.045,-3.034 4.755,-7.15 4.755,-11.441l0,-129.021Z" style="fill:#691be2;"/><path d="M172.8,25.7c0,-4.795 -1.911,-9.393 -5.313,-12.783c-3.402,-3.391 -8.016,-5.296 -12.826,-5.296l-129.454,0c-4.811,0 -9.425,1.905 -12.826,5.296c-3.402,3.39 -5.313,7.988 -5.313,12.783l-0,129.021c-0,4.795 1.911,9.393 5.313,12.784c3.401,3.39 8.015,5.295 12.826,5.295l129.454,-0c4.81,0 9.424,-1.905 12.826,-5.295c3.402,-3.391 5.313,-7.989 5.313,-12.784l-0,-129.021Zm-1.905,0c0,-4.291 -1.71,-8.407 -4.755,-11.441c-3.044,-3.034 -7.174,-4.739 -11.479,-4.739l-129.454,-0c-4.306,-0 -8.435,1.705 -11.48,4.739c-3.044,3.034 -4.755,7.15 -4.755,11.441l0,129.021c0,4.291 1.711,8.407 4.755,11.441c3.045,3.035 7.174,4.74 11.48,4.74l129.454,-0c4.305,-0 8.435,-1.705 11.479,-4.74c3.045,-3.034 4.755,-7.15 4.755,-11.441l0,-129.021Z"/><path d="M163.828,18.079c-0,-4.291 -1.711,-8.407 -4.755,-11.441c-3.045,-3.035 -7.174,-4.74 -11.48,-4.74l-129.454,0c-4.305,0 -8.435,1.705 -11.479,4.74c-3.045,3.034 -4.755,7.15 -4.755,11.441l-0,129.021c-0,4.291 1.71,8.407 4.755,11.441c3.044,3.034 7.174,4.739 11.479,4.739l129.454,0c4.306,0 8.435,-1.705 11.48,-4.739c3.044,-3.034 4.755,-7.15 4.755,-11.441l-0,-129.021Z" style="fill:#ff00b2;"/><path d="M165.732,18.079c0,-4.795 -1.911,-9.393 -5.313,-12.784c-3.401,-3.39 -8.015,-5.295 -12.826,-5.295l-129.454,0c-4.81,-0 -9.424,1.905 -12.826,5.295c-3.402,3.391 -5.313,7.989 -5.313,12.784l0,129.021c-0,4.795 1.911,9.393 5.313,12.783c3.402,3.391 8.016,5.296 12.826,5.296l129.454,-0c4.811,-0 9.425,-1.905 12.826,-5.296c3.402,-3.39 5.313,-7.988 5.313,-12.783l0,-129.021Zm-1.904,-0c-0,-4.291 -1.711,-8.407 -4.755,-11.441c-3.045,-3.035 -7.174,-4.74 -11.48,-4.74l-129.454,0c-4.305,0 -8.435,1.705 -11.479,4.74c-3.045,3.034 -4.755,7.15 -4.755,11.441l-0,129.021c-0,4.291 1.71,8.407 4.755,11.441c3.044,3.034 7.174,4.739 11.479,4.739l129.454,0c4.306,0 8.435,-1.705 11.48,-4.739c3.044,-3.034 4.755,-7.15 4.755,-11.441l-0,-129.021Z"/><path d="M127.256,82.589l-73.144,42.525l0,-85.049l73.144,42.524Z" style="fill:#ebebeb;"/><path d="M52.207,128.419l78.829,-45.83l-78.829,-45.829l0,91.659Zm75.049,-45.83l-73.144,42.525l0,-85.049l73.144,42.524Z"/></g></svg>