<?xml version="1.0" encoding="UTF-8" standalone="no"?><!DOCTYPE svg PUBLIC "-//W3C//DTD SVG 1.1//EN" "http://www.w3.org/Graphics/SVG/1.1/DTD/svg11.dtd"><svg width="100%" height="100%" viewBox="0 0 173 173" version="1.1" xmlns="http://www.w3.org/2000/svg" xmlns:xlink="http://www.w3.org/1999/xlink" xml:space="preserve" xmlns:serif="http://www.serif.com/" style="fill-rule:evenodd;clip-rule:evenodd;stroke-linejoin:round;stroke-miterlimit:2;"><g><path d="M170.895,25.7c0,-4.291 -1.71,-8.407 -4.755,-11.441c-3.044,-3.034 -7.174,-4.739 -11.479,-4.739l-129.454,-0c-4.306,-0 -8.435,1.705 -11.48,4.739c-3.044,3.034 -4.755,7.15 -4.755,11.441l0,129.021c0,4.291 1.711,8.407 4.755,11.441c3.045,3.035 7.174,4.74 11.48,4.74l129.454,-0c4.305,-0 8.435,-1.705 11.479,-4.74c3.045,-3.034 4.755,-7.15 4.755,-11.441l0,-129.021Z" style="fill:#fff;"/><path d="M172.8,25.7c0,-4.795 -1.911,-9.393 -5.313,-12.783c-3.402,-3.391 -8.016,-5.296 -12.826,-5.296l-129.454,0c-4.811,0 -9.425,1.905 -12.826,5.296c-3.402,3.39 -5.313,7.988 -5.313,12.783l-0,129.021c-0,4.795 1.911,9.393 5.313,12.784c3.401,3.39 8.015,5.295 12.826,5.295l129.454,-0c4.81,0 9.424,-1.905 12.826,-5.295c3.402,-3.391 5.313,-7.989 5.313,-12.784l-0,-129.021Zm-1.905,0c0,-4.291 -1.71,-8.407 -4.755,-11.441c-3.044,-3.034 -7.174,-4.739 -11.479,-4.739l-129.454,-0c-4.306,-0 -8.435,1.705 -11.48,4.739c-3.044,3.034 -4.755,7.15 -4.755,11.441l0,129.021c0,4.291 1.711,8.407 4.755,11.441c3.045,3.035 7.174,4.74 11.48,4.74l129.454,-0c4.305,-0 8.435,-1.705 11.479,-4.74c3.045,-3.034 4.755,-7.15 4.755,-11.441l0,-129.021Z"/><path d="M163.828,18.079c-0,-4.291 -1.711,-8.407 -4.755,-11.441c-3.045,-3.035 -7.174,-4.74 -11.48,-4.74l-129.454,0c-4.305,0 -8.435,1.705 -11.479,4.74c-3.045,3.034 -4.755,7.15 -4.755,11.441l-0,129.021c-0,4.291 1.71,8.407 4.755,11.441c3.044,3.034 7.174,4.739 11.479,4.739l129.454,0c4.306,0 8.435,-1.705 11.48,-4.739c3.044,-3.034 4.755,-7.15 4.755,-11.441l-0,-129.021Z" style="fill:#691be2;"/><path d="M165.732,18.079c0,-4.795 -1.911,-9.393 -5.313,-12.784c-3.401,-3.39 -8.015,-5.295 -12.826,-5.295l-129.454,0c-4.81,-0 -9.424,1.905 -12.826,5.295c-3.402,3.391 -5.313,7.989 -5.313,12.784l0,129.021c-0,4.795 1.911,9.393 5.313,12.783c3.402,3.391 8.016,5.296 12.826,5.296l129.454,-0c4.811,-0 9.425,-1.905 12.826,-5.296c3.402,-3.39 5.313,-7.988 5.313,-12.783l0,-129.021Zm-1.904,-0c-0,-4.291 -1.711,-8.407 -4.755,-11.441c-3.045,-3.035 -7.174,-4.74 -11.48,-4.74l-129.454,0c-4.305,0 -8.435,1.705 -11.479,4.74c-3.045,3.034 -4.755,7.15 -4.755,11.441l-0,129.021c-0,4.291 1.71,8.407 4.755,11.441c3.044,3.034 7.174,4.739 11.479,4.739l129.454,0c4.306,0 8.435,-1.705 11.48,-4.739c3.044,-3.034 4.755,-7.15 4.755,-11.441l-0,-129.021Z"/><path d="M1.905,29.997c14.236,-5.268 29.606,-8.143 45.637,-8.143c50.099,-0 93.745,28.075 116.286,69.455l-0,55.791c-0,4.291 -1.711,8.407 -4.755,11.441c-3.045,3.034 -7.174,4.739 -11.48,4.739l-129.454,0c-4.305,0 -8.435,-1.705 -11.479,-4.739c-3.045,-3.034 -4.755,-7.15 -4.755,-11.441l-0,-117.103Z" style="fill:#ff00b2;"/><path d="M1.905,85.404c2.973,-0.345 5.999,-0.523 9.066,-0.523c42.892,0 77.715,34.707 77.715,77.456c-0,0.316 -0.002,0.632 -0.006,0.943l-70.541,0c-4.305,0 -8.435,-1.705 -11.479,-4.739c-3.045,-3.034 -4.755,-7.15 -4.755,-11.441l-0,-61.696Z" style="fill:#ffd348;"/><path d="M1.905,83.493c2.971,-0.337 5.998,-0.51 9.066,-0.51c43.943,-0 79.62,35.557 79.62,79.354c-0,0.315 -0.002,0.63 -0.006,0.943l-1.905,0c0.004,-0.311 0.006,-0.627 0.006,-0.943c-0,-42.749 -34.823,-77.456 -77.715,-77.456c-3.067,0 -6.093,0.178 -9.066,0.523l-0,-1.911Zm-0,-55.519c14.256,-5.19 29.622,-8.019 45.637,-8.019c49.605,0 92.977,27.132 116.286,67.465l-0,3.889c-22.541,-41.38 -66.187,-69.455 -116.286,-69.455c-16.031,-0 -31.401,2.875 -45.637,8.143l-0,-2.023Z"/><path d="M82.866,110.57c15.605,-0 28.255,-12.527 28.255,-27.981c0,-15.453 -12.65,-27.98 -28.255,-27.98c-15.605,-0 -28.255,12.527 -28.255,27.98c0,15.454 12.65,27.981 28.255,27.981Zm0,-9.327c10.403,0 18.837,-8.352 18.837,-18.654c-0,-10.302 -8.434,-18.653 -18.837,-18.653c-10.403,-0 -18.837,8.351 -18.837,18.653c0,10.302 8.434,18.654 18.837,18.654Z" style="fill:#fff;"/><path d="M82.866,111.519c16.133,0 29.208,-12.954 29.208,-28.93c-0,-15.976 -13.075,-28.93 -29.208,-28.93c-16.132,0 -29.207,12.954 -29.207,28.93c-0,15.976 13.075,28.93 29.207,28.93Zm0,-1.898c-15.077,-0 -27.303,-12.101 -27.303,-27.032c0,-14.93 12.226,-27.031 27.303,-27.031c15.077,-0 27.303,12.101 27.303,27.031c-0,14.931 -12.226,27.032 -27.303,27.032Zm0,-7.429c10.931,0 19.789,-8.778 19.789,-19.603c0,-10.824 -8.858,-19.603 -19.789,-19.603c-10.931,0 -19.789,8.779 -19.789,19.603c0,10.825 8.858,19.603 19.789,19.603Zm0,-1.898c-9.875,-0 -17.884,-7.925 -17.884,-17.705c-0,-9.779 8.009,-17.704 17.884,-17.704c9.876,-0 17.885,7.925 17.885,17.704c-0,9.78 -8.009,17.705 -17.885,17.705Z"/><path d="M112.65,47.198c-3.373,0 -6.107,2.725 -6.107,6.087c0,3.361 2.734,6.086 6.107,6.086c3.373,0 6.107,-2.725 6.107,-6.086c-0,-3.362 -2.734,-6.087 -6.107,-6.087Z" style="fill:#fff;fill-rule:nonzero;"/><path d="M112.65,46.249c-3.899,-0 -7.059,3.15 -7.059,7.036c-0,3.885 3.16,7.035 7.059,7.035c3.899,0 7.059,-3.15 7.059,-7.035c0,-3.886 -3.16,-7.036 -7.059,-7.036Zm0,1.898c2.847,0 5.154,2.3 5.154,5.138c0,2.837 -2.307,5.137 -5.154,5.137c-2.847,-0 -5.154,-2.3 -5.154,-5.137c-0,-2.838 2.307,-5.138 5.154,-5.138Z"/><path d="M31.509,44.376c-3.247,6.35 -3.247,14.662 -3.247,31.287l0,13.853c0,16.624 0,24.937 3.247,31.286c2.855,5.586 7.411,10.127 13.016,12.973c6.371,3.236 14.711,3.236 31.392,3.236l13.899,-0c16.68,-0 25.021,-0 31.391,-3.236c5.605,-2.846 10.161,-7.387 13.016,-12.973c3.247,-6.349 3.247,-14.662 3.247,-31.286l-0,-13.853c-0,-16.625 -0,-24.937 -3.247,-31.287c-2.855,-5.586 -7.411,-10.127 -13.016,-12.973c-6.37,-3.235 -14.711,-3.235 -31.391,-3.235l-13.899,-0c-16.681,-0 -25.021,-0 -31.392,3.235c-5.605,2.846 -10.161,7.387 -13.016,12.973Zm58.307,-6.313l-13.899,-0c-8.504,-0 -14.285,0.007 -18.754,0.371c-4.353,0.355 -6.578,0.997 -8.131,1.786c-3.736,1.897 -6.774,4.924 -8.677,8.648c-0.792,1.548 -1.436,3.766 -1.792,8.104c-0.365,4.454 -0.373,10.215 -0.373,18.691l0,13.853c0,8.476 0.008,14.237 0.373,18.69c0.356,4.339 1,6.557 1.792,8.105c1.903,3.723 4.941,6.75 8.677,8.648c1.553,0.788 3.778,1.431 8.131,1.785c4.469,0.364 10.25,0.372 18.754,0.372l13.899,-0c8.504,-0 14.285,-0.008 18.753,-0.372c4.353,-0.354 6.579,-0.997 8.132,-1.785c3.736,-1.898 6.773,-4.925 8.677,-8.648c0.791,-1.548 1.436,-3.766 1.791,-8.105c0.365,-4.453 0.373,-10.214 0.373,-18.69l-0,-13.853c-0,-8.476 -0.008,-14.237 -0.373,-18.691c-0.355,-4.338 -1,-6.556 -1.791,-8.104c-1.904,-3.724 -4.941,-6.751 -8.677,-8.648c-1.553,-0.789 -3.779,-1.431 -8.132,-1.786c-4.468,-0.364 -10.249,-0.371 -18.753,-0.371Z" style="fill:#fff;"/><path d="M30.66,43.945c-3.292,6.439 -3.35,14.861 -3.35,31.718l0,13.853c0,16.857 0.059,25.279 3.35,31.717c2.947,5.765 7.649,10.451 13.432,13.388c6.46,3.281 14.911,3.339 31.825,3.339c-0,-0 13.899,-0 13.899,-0c16.913,-0 25.364,-0.058 31.824,-3.339c5.783,-2.937 10.485,-7.623 13.432,-13.388c3.292,-6.438 3.35,-14.86 3.35,-31.717c0,-0 0,-13.853 0,-13.853c0,-16.857 -0.058,-25.279 -3.35,-31.718c-2.947,-5.764 -7.649,-10.45 -13.432,-13.387c-6.46,-3.281 -14.911,-3.339 -31.824,-3.339c-0,-0 -13.899,-0 -13.899,-0c-16.914,-0 -25.365,0.058 -31.825,3.339c-5.783,2.937 -10.485,7.623 -13.432,13.387l0,0Zm1.697,0.862c2.764,-5.407 7.175,-9.803 12.6,-12.558c6.282,-3.19 14.512,-3.132 30.96,-3.132l13.899,0c16.447,0 24.677,-0.058 30.959,3.132c0,0 0,0 0,0c5.425,2.755 9.836,7.151 12.6,12.558c-0,-0 -0,-0 -0,-0c3.201,6.261 3.143,14.463 3.143,30.856l-0,13.853c-0,16.392 0.058,24.595 -3.143,30.855c-0,0.001 -0,0.001 -0,0.001c-2.764,5.407 -7.175,9.803 -12.6,12.557c0,0 0,0 0,0c-6.282,3.191 -14.512,3.132 -30.959,3.132l-13.899,0c-16.448,0 -24.678,0.059 -30.96,-3.132c0,0 0,0 0,0c-5.425,-2.754 -9.836,-7.15 -12.6,-12.557c0,-0 0,-0 0,-0c-3.201,-6.261 -3.142,-14.464 -3.142,-30.856c-0,-0 -0,-13.853 -0,-13.853c-0,-16.393 -0.059,-24.595 3.142,-30.856l0,-0Zm57.459,-7.693l-13.899,-0c-8.54,-0 -14.345,0.009 -18.831,0.374c-4.546,0.37 -6.865,1.063 -8.486,1.886c-0,-0 -0,-0 -0,-0c-3.916,1.988 -7.099,5.161 -9.094,9.063c-0.826,1.616 -1.521,3.928 -1.892,8.458c-0.367,4.472 -0.376,10.257 -0.376,18.768l-0,13.853c-0,8.511 0.009,14.296 0.376,18.768c0.371,4.53 1.066,6.842 1.892,8.458c-0,-0 -0,-0 -0,-0c1.995,3.902 5.178,7.074 9.093,9.062c1.622,0.824 3.941,1.516 8.487,1.886c4.486,0.365 10.291,0.375 18.831,0.375c-0,0 13.899,0 13.899,0c8.539,0 14.344,-0.01 18.831,-0.375c4.545,-0.37 6.865,-1.062 8.486,-1.885c3.915,-1.989 7.098,-5.161 9.093,-9.063c0.826,-1.616 1.521,-3.928 1.892,-8.458c0.367,-4.472 0.376,-10.257 0.376,-18.768c0,-0 0,-13.853 0,-13.853c0,-8.511 -0.009,-14.296 -0.376,-18.768c-0.371,-4.53 -1.066,-6.842 -1.892,-8.458c-1.995,-3.902 -5.178,-7.075 -9.093,-9.063c0,-0 0,-0 0,-0c-1.621,-0.823 -3.941,-1.516 -8.486,-1.886c-4.487,-0.365 -10.292,-0.374 -18.831,-0.374Zm-0,1.898c8.469,-0 14.225,0.006 18.676,0.368c4.16,0.339 6.292,0.932 7.776,1.685c3.557,1.807 6.449,4.689 8.261,8.234c0,0 0,0 0,0c0.756,1.479 1.351,3.604 1.691,7.75c0.363,4.435 0.37,10.173 0.37,18.614l-0,13.853c-0,8.44 -0.007,14.178 -0.37,18.613c-0.34,4.147 -0.935,6.272 -1.691,7.751c0,-0 0,-0 0,-0c-1.812,3.545 -4.704,6.427 -8.261,8.233c0,0 0,0 0,0c-1.484,0.754 -3.616,1.347 -7.776,1.685c-4.45,0.362 -10.207,0.369 -18.676,0.369l-13.899,-0c-8.469,-0 -14.226,-0.007 -18.676,-0.369c-4.161,-0.338 -6.293,-0.931 -7.777,-1.685c0,0 0,0 0,0c-3.557,-1.806 -6.449,-4.688 -8.261,-8.233c-0.756,-1.479 -1.351,-3.604 -1.691,-7.751c-0.363,-4.435 -0.369,-10.173 -0.369,-18.613c-0,-0 -0,-13.853 -0,-13.853c-0,-8.441 0.006,-14.179 0.369,-18.614c0.34,-4.146 0.935,-6.271 1.691,-7.75c1.812,-3.545 4.704,-6.427 8.261,-8.234c1.484,-0.753 3.616,-1.346 7.777,-1.685c4.45,-0.362 10.207,-0.368 18.676,-0.368l13.899,-0Z"/></g></svg>