<?xml version="1.0" encoding="UTF-8" standalone="no"?><!DOCTYPE svg PUBLIC "-//W3C//DTD SVG 1.1//EN" "http://www.w3.org/Graphics/SVG/1.1/DTD/svg11.dtd"><svg width="100%" height="100%" viewBox="0 0 173 173" version="1.1" xmlns="http://www.w3.org/2000/svg" xmlns:xlink="http://www.w3.org/1999/xlink" xml:space="preserve" xmlns:serif="http://www.serif.com/" style="fill-rule:evenodd;clip-rule:evenodd;stroke-linejoin:round;stroke-miterlimit:2;"><g><path d="M170.895,25.7c0,-4.291 -1.71,-8.407 -4.755,-11.441c-3.044,-3.034 -7.174,-4.739 -11.479,-4.739l-129.454,-0c-4.306,-0 -8.435,1.705 -11.48,4.739c-3.044,3.034 -4.755,7.15 -4.755,11.441l0,129.021c0,4.291 1.711,8.407 4.755,11.441c3.045,3.035 7.174,4.74 11.48,4.74l129.454,-0c4.305,-0 8.435,-1.705 11.479,-4.74c3.045,-3.034 4.755,-7.15 4.755,-11.441l0,-129.021Z" style="fill:#00d8ff;"/><path d="M172.8,25.7c0,-4.795 -1.911,-9.393 -5.313,-12.783c-3.402,-3.391 -8.016,-5.296 -12.826,-5.296l-129.454,0c-4.811,0 -9.425,1.905 -12.826,5.296c-3.402,3.39 -5.313,7.988 -5.313,12.783l-0,129.021c-0,4.795 1.911,9.393 5.313,12.784c3.401,3.39 8.015,5.295 12.826,5.295l129.454,-0c4.81,0 9.424,-1.905 12.826,-5.295c3.402,-3.391 5.313,-7.989 5.313,-12.784l-0,-129.021Zm-1.905,0c0,-4.291 -1.71,-8.407 -4.755,-11.441c-3.044,-3.034 -7.174,-4.739 -11.479,-4.739l-129.454,-0c-4.306,-0 -8.435,1.705 -11.48,4.739c-3.044,3.034 -4.755,7.15 -4.755,11.441l0,129.021c0,4.291 1.711,8.407 4.755,11.441c3.045,3.035 7.174,4.74 11.48,4.74l129.454,-0c4.305,-0 8.435,-1.705 11.479,-4.74c3.045,-3.034 4.755,-7.15 4.755,-11.441l0,-129.021Z"/><path d="M163.828,18.079c-0,-4.291 -1.711,-8.407 -4.755,-11.441c-3.045,-3.035 -7.174,-4.74 -11.48,-4.74l-129.454,0c-4.305,0 -8.435,1.705 -11.479,4.74c-3.045,3.034 -4.755,7.15 -4.755,11.441l-0,129.021c-0,4.291 1.71,8.407 4.755,11.441c3.044,3.034 7.174,4.739 11.479,4.739l129.454,0c4.306,0 8.435,-1.705 11.48,-4.739c3.044,-3.034 4.755,-7.15 4.755,-11.441l-0,-129.021Z"/><path d="M165.732,18.079c0,-4.795 -1.911,-9.393 -5.313,-12.784c-3.401,-3.39 -8.015,-5.295 -12.826,-5.295l-129.454,0c-4.81,-0 -9.424,1.905 -12.826,5.295c-3.402,3.391 -5.313,7.989 -5.313,12.784l0,129.021c-0,4.795 1.911,9.393 5.313,12.783c3.402,3.391 8.016,5.296 12.826,5.296l129.454,-0c4.811,-0 9.425,-1.905 12.826,-5.296c3.402,-3.39 5.313,-7.988 5.313,-12.783l0,-129.021Zm-1.904,-0c-0,-4.291 -1.711,-8.407 -4.755,-11.441c-3.045,-3.035 -7.174,-4.74 -11.48,-4.74l-129.454,0c-4.305,0 -8.435,1.705 -11.479,4.74c-3.045,3.034 -4.755,7.15 -4.755,11.441l-0,129.021c-0,4.291 1.71,8.407 4.755,11.441c3.044,3.034 7.174,4.739 11.479,4.739l129.454,0c4.306,0 8.435,-1.705 11.48,-4.739c3.044,-3.034 4.755,-7.15 4.755,-11.441l-0,-129.021Z"/><path d="M133.688,51.357l-0,17.16c-10.604,0.053 -20.959,-3.319 -29.583,-9.632l-0,44.03c0.001,0.103 0.001,0.207 0.001,0.31c-0,22.078 -17.755,40.246 -39.332,40.246c-8.083,-0 -15.629,-2.549 -21.908,-6.9c7.149,7.43 17.067,12.06 27.959,12.06c21.577,-0 39.332,-18.168 39.332,-40.246c0,-0.104 -0,-0.207 -0.001,-0.31l-0,-44.03c8.624,6.313 18.979,9.684 29.583,9.632l-0,-21.671c-2.071,-0 -4.095,-0.223 -6.051,-0.649Zm-63.536,16.8l-0,17.559c-1.844,-0.626 -3.773,-0.944 -5.715,-0.944c-9.959,-0 -18.153,8.385 -18.153,18.575c-0,7.15 4.035,13.411 9.888,16.497c-2.406,-3.136 -3.837,-7.079 -3.837,-11.338c-0,-10.19 8.194,-18.575 18.153,-18.575c1.942,0 3.871,0.319 5.715,0.945l-0,-22.359c-1.782,-0.252 -3.579,-0.378 -5.378,-0.378l-0.673,0.018Zm34.398,-46.422c1.455,8.572 6.494,15.951 13.457,20.446c-4.866,-5.401 -7.851,-12.594 -7.851,-20.446l-5.606,0Z" style="fill:#ff00b2;"/><path d="M42.866,136.571c-7.019,-7.279 -11.373,-17.253 -11.373,-28.186c0,-21.849 17.388,-39.868 38.659,-40.228l-0,-4.8c-1.782,-0.251 -3.579,-0.378 -5.378,-0.378c-21.577,0 -39.332,18.168 -39.332,40.246c-0,13.808 6.944,26.086 17.424,33.346Zm13.306,-16.727c3.32,4.396 8.519,7.237 14.316,7.237c9.958,0 18.153,-8.385 18.153,-18.575c0,-0.029 0,-0.058 -0,-0.087l-0,-86.684l15.909,0c-0.296,-1.678 -0.445,-3.402 -0.445,-5.159l-21.515,-0l-0,86.683c-0,0.029 0,0.058 0,0.088c0,10.19 -8.195,18.575 -18.153,18.575c-2.971,-0 -5.784,-0.747 -8.265,-2.078Zm61.835,-77.663c4.108,4.568 9.558,7.854 15.681,9.176l-0,-4.511c-5.744,0 -11.127,-1.711 -15.681,-4.665Z" style="fill:#00d8ff;"/><path d="M104.55,21.735l-15.909,0l-0,86.684c0,0.029 0,0.058 0,0.087c0,10.19 -8.195,18.575 -18.153,18.575c-5.797,0 -10.996,-2.841 -14.316,-7.237c-5.853,-3.086 -9.888,-9.347 -9.888,-16.497c-0,-10.19 8.194,-18.575 18.153,-18.575c1.942,-0 3.871,0.318 5.715,0.944l-0,-17.559c-21.271,0.36 -38.659,18.379 -38.659,40.228c0,10.933 4.354,20.907 11.373,28.186c6.279,4.351 13.825,6.9 21.908,6.9c21.577,-0 39.332,-18.168 39.332,-40.246c-0,-0.103 -0,-0.207 -0.001,-0.31l-0,-44.03c8.624,6.313 18.979,9.685 29.583,9.632l-0,-17.16c-6.124,-1.321 -11.574,-4.608 -15.681,-9.176c-6.964,-4.494 -11.999,-11.875 -13.457,-20.446Z" style="fill:#fff;"/><path d="M106.428,21.418l-0.269,-1.581l-19.423,0l0,88.586c0,0.031 0,0.057 0,0.083c0,9.135 -7.321,16.677 -16.248,16.677c-5.183,-0 -9.826,-2.55 -12.794,-6.481l-0.255,-0.338l-0.376,-0.199c-5.257,-2.77 -8.875,-8.397 -8.875,-14.818c0,-9.135 7.321,-16.677 16.249,-16.677c1.733,-0 3.455,0.285 5.101,0.843l2.518,0.855l0,-22.142l-1.937,0.033c-22.287,0.377 -40.531,19.233 -40.531,42.126c0,11.443 4.558,21.883 11.905,29.501l0.131,0.136l0.155,0.108c6.59,4.566 14.511,7.239 22.995,7.239c22.608,0 41.237,-19.011 41.237,-42.144c-0,-0.105 -0.001,-0.211 -0.001,-0.316c-0,-0 -0,-40.433 -0,-40.433c8.303,5.225 17.893,7.988 27.687,7.939l1.896,-0.009l-0,-20.58l-1.502,-0.324c-5.728,-1.236 -10.824,-4.315 -14.665,-8.588l-0.17,-0.188l-0.213,-0.138c-6.529,-4.214 -11.248,-11.135 -12.615,-19.17Zm-1.878,0.317l-15.909,0l-0,86.684c0,0.029 0,0.058 0,0.087c0,10.19 -8.195,18.575 -18.153,18.575c-5.797,0 -10.996,-2.841 -14.316,-7.237c-5.853,-3.086 -9.888,-9.347 -9.888,-16.497c-0,-10.19 8.194,-18.575 18.153,-18.575c1.942,-0 3.871,0.318 5.715,0.944l-0,-17.559c-21.271,0.36 -38.659,18.379 -38.659,40.228c0,10.933 4.354,20.907 11.373,28.186c6.279,4.351 13.825,6.9 21.908,6.9c21.577,-0 39.332,-18.168 39.332,-40.246c-0,-0.103 -0,-0.207 -0.001,-0.31l-0,-44.03c8.624,6.313 18.979,9.685 29.583,9.632l-0,-17.16c-6.124,-1.321 -11.574,-4.608 -15.681,-9.176c-6.964,-4.494 -11.999,-11.875 -13.457,-20.446Z"/></g></svg>