<?xml version="1.0" encoding="UTF-8" standalone="no"?><!DOCTYPE svg PUBLIC "-//W3C//DTD SVG 1.1//EN" "http://www.w3.org/Graphics/SVG/1.1/DTD/svg11.dtd">
<svg
  width="100%"
  height="100%"
  viewBox="0 0 175 41"
  version="1.1"
  xmlns="http://www.w3.org/2000/svg"
  xmlns:xlink="http://www.w3.org/1999/xlink"
  xml:space="preserve"
  xmlns:serif="http://www.serif.com/"
  style="fill-rule: evenodd; clip-rule: evenodd; stroke-miterlimit: 10"
>
  <path
    id="outline"
    d="M13.096,39.277c-1.707,0 -3.272,-0.38 -4.695,-1.142c-1.422,-0.761 -2.545,-1.811 -3.367,-3.147c-0.822,-1.336 -1.233,-2.838 -1.233,-4.505l0,-20.347c0,-1.666 0.419,-3.168 1.257,-4.505c0.837,-1.336 1.992,-2.385 3.462,-3.146c1.47,-0.762 3.122,-1.143 4.956,-1.143l4.742,0c1.708,0 3.273,0.381 4.695,1.143c1.423,0.761 2.545,1.81 3.367,3.146c0.822,1.337 1.234,2.839 1.234,4.505l-0,20.347c-0,1.667 -0.412,3.169 -1.234,4.505c-0.822,1.336 -1.944,2.386 -3.367,3.147c-1.422,0.762 -2.987,1.142 -4.695,1.142l-5.122,0Zm108.364,0c-1.707,0 -3.272,-0.38 -4.695,-1.142c-1.423,-0.761 -2.546,-1.811 -3.367,-3.147c-0.823,-1.336 -1.233,-2.838 -1.233,-4.505l-0,-20.347c-0,-1.666 0.418,-3.168 1.256,-4.505c0.838,-1.336 1.992,-2.385 3.462,-3.146c1.471,-0.762 3.122,-1.143 4.956,-1.143l4.743,0c1.707,0 3.272,0.381 4.695,1.143c1.423,0.761 2.544,1.81 3.367,3.146c0.822,1.337 1.233,2.839 1.233,4.505l0,20.347c0,1.667 -0.411,3.169 -1.233,4.505c-0.823,1.336 -1.944,2.386 -3.367,3.147c-1.423,0.762 -2.988,1.142 -4.695,1.142l-5.122,0Zm28.833,-36.641c0,-0.403 0.126,-0.718 0.38,-0.949c0.253,-0.23 0.6,-0.345 1.043,-0.345l5.928,0c0.885,0 1.439,0.431 1.66,1.294l1.755,10.475c0.063,0.374 0.245,0.668 0.545,0.883c0.3,0.216 0.641,0.324 1.02,0.324c0.411,-0 0.759,-0.115 1.043,-0.345c0.285,-0.23 0.411,-0.546 0.38,-0.948l-0.475,-10.389c-0.031,-0.403 0.087,-0.718 0.356,-0.949c0.268,-0.23 0.624,-0.345 1.067,-0.345l7.351,0c0.474,0 0.869,0.108 1.186,0.324c0.315,0.215 0.474,0.538 0.474,0.97l-0,35.348c-0,0.403 -0.127,0.719 -0.379,0.948c-0.254,0.231 -0.601,0.345 -1.044,0.345l-7.588,0c-0.443,0 -0.767,-0.1 -0.972,-0.302c-0.206,-0.2 -0.356,-0.531 -0.451,-0.991l-2.181,-10.174c-0.19,-0.804 -0.569,-1.207 -1.138,-1.207c-0.285,0 -0.514,0.116 -0.688,0.345c-0.174,0.231 -0.261,0.546 -0.261,0.949l0,10.087c0,0.403 -0.127,0.719 -0.379,0.948c-0.254,0.231 -0.601,0.345 -1.044,0.345l-6.165,0c-0.443,0 -0.79,-0.114 -1.043,-0.345c-0.254,-0.229 -0.38,-0.545 -0.38,-0.948l0,-35.348Zm-121.974,-0c0,-0.403 0.126,-0.718 0.38,-0.949c0.252,-0.23 0.6,-0.345 1.043,-0.345l5.928,0c0.885,0 1.439,0.431 1.66,1.294l1.755,10.475c0.063,0.374 0.244,0.668 0.545,0.883c0.3,0.216 0.64,0.324 1.02,0.324c0.41,-0 0.759,-0.115 1.043,-0.345c0.285,-0.23 0.411,-0.546 0.38,-0.948l-0.475,-10.389c-0.032,-0.403 0.087,-0.718 0.356,-0.949c0.268,-0.23 0.624,-0.345 1.067,-0.345l7.351,0c0.474,0 0.869,0.108 1.186,0.324c0.315,0.215 0.474,0.538 0.474,0.97l-0,35.348c-0,0.403 -0.127,0.719 -0.38,0.948c-0.253,0.231 -0.601,0.345 -1.043,0.345l-7.588,0c-0.443,0 -0.767,-0.1 -0.972,-0.302c-0.206,-0.2 -0.356,-0.531 -0.451,-0.991l-2.181,-10.174c-0.19,-0.804 -0.569,-1.207 -1.138,-1.207c-0.285,0 -0.515,0.116 -0.688,0.345c-0.174,0.231 -0.261,0.546 -0.261,0.949l0,10.087c0,0.403 -0.127,0.719 -0.379,0.948c-0.254,0.231 -0.601,0.345 -1.044,0.345l-6.165,0c-0.443,0 -0.791,-0.114 -1.043,-0.345c-0.254,-0.229 -0.38,-0.545 -0.38,-0.948l0,-35.348Zm109.787,36.641c-0.443,0 -0.791,-0.114 -1.044,-0.345c-0.253,-0.229 -0.379,-0.545 -0.379,-0.948l-0,-35.348c-0,-0.403 0.126,-0.719 0.379,-0.949c0.253,-0.229 0.601,-0.345 1.044,-0.345l9.722,0c0.884,0 1.438,0.431 1.66,1.294l-0,35.348c-0,0.403 -0.127,0.719 -0.38,0.948c-0.253,0.231 -0.601,0.345 -1.043,0.345l-9.959,0Zm-83.846,0c-0.443,0 -0.79,-0.114 -1.043,-0.345c-0.253,-0.229 -0.38,-0.545 -0.38,-0.948l0,-35.348c0,-0.403 0.127,-0.719 0.38,-0.949c0.253,-0.229 0.6,-0.345 1.043,-0.345l20.867,0c0.443,0 0.79,0.116 1.044,0.345c0.252,0.23 0.379,0.546 0.379,0.949l-0,9.397c-0,0.403 -0.127,0.719 -0.379,0.948c-0.254,0.231 -0.601,0.345 -1.044,0.345l-10.338,0c-0.506,0 -0.894,0.151 -1.162,0.453c-0.269,0.302 -0.403,0.668 -0.403,1.099c-0,0.431 0.134,0.798 0.403,1.099c0.268,0.302 0.656,0.453 1.162,0.453l8.441,-0c0.949,-0 1.423,0.431 1.423,1.293l0.142,6.51c0,0.402 -0.126,0.718 -0.379,0.948c-0.254,0.23 -0.601,0.345 -1.043,0.345l-8.584,-0c-0.506,-0 -0.894,0.144 -1.162,0.431c-0.269,0.287 -0.403,0.646 -0.403,1.078c-0,0.402 0.134,0.754 0.403,1.056c0.268,0.301 0.656,0.452 1.162,0.452l10.338,0c0.443,0 0.79,0.115 1.044,0.345c0.252,0.23 0.379,0.546 0.379,0.949l-0,8.147c-0,0.403 -0.127,0.719 -0.379,0.948c-0.254,0.231 -0.601,0.345 -1.044,0.345l-20.867,0Zm38.224,0c-1.392,0 -2.546,-0.416 -3.462,-1.25c-0.918,-0.833 -1.376,-1.882 -1.376,-3.147l0,-29.141c0,-1.264 0.458,-2.313 1.376,-3.147c0.916,-0.833 2.07,-1.25 3.462,-1.25l13.706,0c1.39,0 2.544,0.417 3.461,1.25c0.917,0.834 1.376,1.883 1.376,3.147l-0,9.613c-0,0.317 -0.119,0.582 -0.356,0.798c-0.237,0.215 -0.514,0.323 -0.83,0.323l-7.683,0c-0.316,0 -0.592,-0.108 -0.83,-0.323c-0.237,-0.216 -0.355,-0.467 -0.355,-0.755l-0.048,-5.043c0,-0.632 -0.142,-1.149 -0.427,-1.552c-0.284,-0.402 -0.632,-0.604 -1.043,-0.604c-0.411,0 -0.751,0.209 -1.019,0.625c-0.269,0.417 -0.403,0.942 -0.403,1.574l-0,17.933c-0,0.632 0.134,1.157 0.403,1.573c0.268,0.417 0.608,0.625 1.019,0.625c0.411,0 0.751,-0.201 1.02,-0.603c0.268,-0.402 0.403,-0.92 0.403,-1.552l0.095,-8.277c-0,-0.316 0.118,-0.574 0.355,-0.776c0.238,-0.2 0.514,-0.302 0.83,-0.302l7.968,0c0.347,0 0.64,0.108 0.877,0.324c0.237,0.215 0.356,0.467 0.356,0.754l-0.237,14.872c-0.032,1.265 -0.498,2.3 -1.399,3.104c-0.901,0.805 -2.048,1.207 -3.439,1.207l-13.8,0Z"
  />
  <path
    id="text"
    d="M25.724,2.499c0,-0.402 0.126,-0.718 0.379,-0.948c0.253,-0.23 0.601,-0.345 1.044,-0.345l5.928,0c0.885,0 1.438,0.431 1.66,1.293l1.755,10.475c0.062,0.374 0.244,0.668 0.545,0.884c0.3,0.216 0.64,0.323 1.02,0.323c0.41,0 0.758,-0.114 1.043,-0.344c0.284,-0.23 0.41,-0.546 0.379,-0.949l-0.474,-10.389c-0.032,-0.402 0.087,-0.718 0.356,-0.948c0.268,-0.23 0.624,-0.345 1.067,-0.345l7.35,0c0.475,0 0.87,0.108 1.186,0.323c0.316,0.216 0.474,0.539 0.474,0.97l0,35.349c0,0.402 -0.126,0.718 -0.379,0.948c-0.253,0.23 -0.601,0.345 -1.043,0.345l-7.588,-0c-0.443,-0 -0.767,-0.101 -0.972,-0.302c-0.207,-0.201 -0.356,-0.531 -0.451,-0.991l-2.182,-10.174c-0.189,-0.804 -0.569,-1.207 -1.138,-1.207c-0.284,0 -0.514,0.115 -0.687,0.345c-0.175,0.23 -0.261,0.546 -0.261,0.948l-0,10.088c-0,0.402 -0.127,0.718 -0.38,0.948c-0.253,0.23 -0.601,0.345 -1.043,0.345l-6.165,-0c-0.443,-0 -0.791,-0.115 -1.044,-0.345c-0.253,-0.23 -0.379,-0.546 -0.379,-0.948l0,-35.349Zm121.974,0c0,-0.402 0.126,-0.718 0.38,-0.948c0.252,-0.23 0.6,-0.345 1.043,-0.345l5.928,0c0.885,0 1.438,0.431 1.66,1.293l1.755,10.475c0.063,0.374 0.244,0.668 0.545,0.884c0.3,0.216 0.64,0.323 1.02,0.323c0.41,0 0.759,-0.114 1.043,-0.344c0.285,-0.23 0.411,-0.546 0.379,-0.949l-0.474,-10.389c-0.032,-0.402 0.087,-0.718 0.356,-0.948c0.268,-0.23 0.624,-0.345 1.067,-0.345l7.351,0c0.474,0 0.869,0.108 1.185,0.323c0.316,0.216 0.475,0.539 0.475,0.97l-0,35.349c-0,0.402 -0.127,0.718 -0.38,0.948c-0.253,0.23 -0.601,0.345 -1.043,0.345l-7.588,-0c-0.443,-0 -0.767,-0.101 -0.972,-0.302c-0.206,-0.201 -0.356,-0.531 -0.451,-0.991l-2.181,-10.174c-0.19,-0.804 -0.569,-1.207 -1.138,-1.207c-0.285,0 -0.515,0.115 -0.688,0.345c-0.174,0.23 -0.261,0.546 -0.261,0.948l-0,10.088c-0,0.402 -0.127,0.718 -0.379,0.948c-0.254,0.23 -0.601,0.345 -1.044,0.345l-6.165,-0c-0.443,-0 -0.791,-0.115 -1.043,-0.345c-0.254,-0.23 -0.38,-0.546 -0.38,-0.948l0,-35.349Zm-12.188,36.642c-0.443,-0 -0.79,-0.115 -1.043,-0.345c-0.254,-0.23 -0.38,-0.546 -0.38,-0.948l0,-35.349c0,-0.402 0.126,-0.718 0.38,-0.948c0.253,-0.23 0.6,-0.345 1.043,-0.345l9.722,0c0.885,0 1.439,0.431 1.66,1.293l0,35.349c0,0.402 -0.126,0.718 -0.379,0.948c-0.254,0.23 -0.601,0.345 -1.044,0.345l-9.959,-0Zm-83.845,-0c-0.443,-0 -0.791,-0.115 -1.043,-0.345c-0.254,-0.23 -0.38,-0.546 -0.38,-0.948l0,-35.349c0,-0.402 0.126,-0.718 0.38,-0.948c0.252,-0.23 0.6,-0.345 1.043,-0.345l20.867,0c0.442,0 0.79,0.115 1.043,0.345c0.253,0.23 0.38,0.546 0.38,0.948l-0,9.398c-0,0.403 -0.127,0.718 -0.38,0.948c-0.253,0.23 -0.601,0.345 -1.043,0.345l-10.339,-0c-0.506,-0 -0.893,0.151 -1.162,0.452c-0.269,0.302 -0.403,0.669 -0.403,1.1c0,0.431 0.134,0.797 0.403,1.099c0.269,0.302 0.656,0.453 1.162,0.453l8.442,-0c0.948,-0 1.423,0.431 1.423,1.293l0.142,6.509c-0,0.403 -0.127,0.719 -0.379,0.948c-0.254,0.231 -0.601,0.345 -1.044,0.345l-8.584,0c-0.506,0 -0.893,0.145 -1.162,0.432c-0.269,0.287 -0.403,0.646 -0.403,1.077c0,0.403 0.134,0.755 0.403,1.056c0.269,0.302 0.656,0.453 1.162,0.453l10.339,-0c0.442,-0 0.79,0.115 1.043,0.345c0.253,0.23 0.38,0.546 0.38,0.948l-0,8.148c-0,0.402 -0.127,0.718 -0.38,0.948c-0.253,0.23 -0.601,0.345 -1.043,0.345l-20.867,-0Zm38.223,-0c-1.391,-0 -2.545,-0.416 -3.462,-1.25c-0.917,-0.834 -1.375,-1.882 -1.375,-3.147l0,-29.141c0,-1.264 0.458,-2.313 1.375,-3.147c0.917,-0.833 2.071,-1.25 3.462,-1.25l13.706,0c1.391,0 2.545,0.417 3.462,1.25c0.917,0.834 1.375,1.883 1.375,3.147l0,9.613c0,0.317 -0.118,0.582 -0.355,0.798c-0.237,0.215 -0.514,0.323 -0.83,0.323l-7.683,-0c-0.316,-0 -0.593,-0.108 -0.83,-0.323c-0.237,-0.216 -0.356,-0.467 -0.356,-0.755l-0.047,-5.044c0,-0.631 -0.142,-1.149 -0.427,-1.551c-0.284,-0.402 -0.633,-0.604 -1.043,-0.604c-0.411,-0 -0.752,0.209 -1.02,0.625c-0.269,0.417 -0.403,0.942 -0.403,1.574l0,17.932c0,0.633 0.134,1.158 0.403,1.574c0.268,0.417 0.609,0.625 1.02,0.625c0.41,-0 0.751,-0.201 1.019,-0.604c0.269,-0.402 0.404,-0.919 0.404,-1.551l0.094,-8.277c0,-0.316 0.119,-0.575 0.356,-0.776c0.237,-0.201 0.514,-0.302 0.83,-0.302l7.967,0c0.348,0 0.641,0.108 0.878,0.323c0.237,0.216 0.355,0.468 0.355,0.755l-0.237,14.872c-0.031,1.265 -0.498,2.3 -1.399,3.104c-0.901,0.805 -2.047,1.207 -3.438,1.207l-13.801,-0Zm-79.387,-0c-1.707,-0 -3.272,-0.381 -4.695,-1.143c-1.423,-0.761 -2.545,-1.81 -3.367,-3.146c-0.823,-1.337 -1.233,-2.838 -1.233,-4.505l-0,-20.347c-0,-1.666 0.419,-3.168 1.257,-4.505c0.837,-1.336 1.992,-2.385 3.462,-3.147c1.47,-0.761 3.122,-1.142 4.956,-1.142l4.742,-0c1.707,-0 3.272,0.381 4.695,1.142c1.423,0.762 2.545,1.811 3.367,3.147c0.822,1.337 1.233,2.839 1.233,4.505l0,20.347c0,1.667 -0.411,3.168 -1.233,4.505c-0.822,1.336 -1.944,2.385 -3.367,3.146c-1.423,0.762 -2.988,1.143 -4.695,1.143l-5.122,-0Zm108.364,-0c-1.708,-0 -3.273,-0.381 -4.695,-1.143c-1.423,-0.761 -2.546,-1.81 -3.368,-3.146c-0.822,-1.337 -1.233,-2.838 -1.233,-4.505l0,-20.347c0,-1.666 0.419,-3.168 1.257,-4.505c0.838,-1.336 1.992,-2.385 3.462,-3.147c1.47,-0.761 3.122,-1.142 4.956,-1.142l4.743,-0c1.707,-0 3.272,0.381 4.695,1.142c1.422,0.762 2.544,1.811 3.367,3.147c0.822,1.337 1.233,2.839 1.233,4.505l-0,20.347c-0,1.667 -0.411,3.168 -1.233,4.505c-0.823,1.336 -1.945,2.385 -3.367,3.146c-1.423,0.762 -2.988,1.143 -4.695,1.143l-5.122,-0Zm-105.518,-7.975c0.347,-0 0.632,-0.108 0.853,-0.323c0.221,-0.216 0.332,-0.467 0.332,-0.755l0,-19.829c0,-0.316 -0.118,-0.582 -0.355,-0.798c-0.237,-0.215 -0.515,-0.323 -0.83,-0.323l-0.522,-0c-0.316,-0 -0.593,0.101 -0.83,0.302c-0.237,0.201 -0.356,0.46 -0.356,0.775l0,19.873c0,0.288 0.119,0.539 0.356,0.755c0.237,0.215 0.514,0.323 0.83,0.323l0.522,-0Zm108.363,-0c0.348,-0 0.632,-0.108 0.854,-0.323c0.221,-0.216 0.332,-0.467 0.332,-0.755l-0,-19.829c-0,-0.316 -0.119,-0.582 -0.356,-0.798c-0.237,-0.215 -0.514,-0.323 -0.83,-0.323l-0.522,-0c-0.316,-0 -0.592,0.101 -0.829,0.302c-0.238,0.201 -0.356,0.46 -0.356,0.775l-0,19.873c-0,0.288 0.118,0.539 0.356,0.755c0.237,0.215 0.513,0.323 0.829,0.323l0.522,-0Z"
    style="fill: #fff; fill-rule: nonzero; stroke: #000; stroke-width: 0.24px"
  />
</svg>
